<svg width="100" height="15" viewBox="0 0 100 15" fill="none" xmlns="http://www.w3.org/2000/svg">
<path fill-rule="evenodd" clip-rule="evenodd" d="M56.5 1C60.0875 1 63 3.91254 63 7.5C63 11.0875 60.0875 14 56.5 14C52.9125 14 50 11.0875 50 7.5C50 3.91254 52.9125 1 56.5 1ZM56.5 1.54167C59.7885 1.54167 62.4583 4.21154 62.4583 7.5C62.4583 10.7885 59.7885 13.4583 56.5 13.4583C53.2115 13.4583 50.5417 10.7885 50.5417 7.5C50.5417 4.21154 53.2115 1.54167 56.5 1.54167ZM56.5 7.5H59.75V8.04167H55.9583V3.16667H56.5V7.5Z" fill="#B3B3B3" stroke="#B3B3B3" stroke-width="0.3"/>
</svg>
